<svg width="420" height="420" viewBox="0 0 420 420" fill="none" xmlns="http://www.w3.org/2000/svg">
  <rect width="420" height="420" rx="42" fill="#09111F"/>
  <rect x="20" y="20" width="380" height="380" rx="32" fill="url(#paint0_linear)"/>
  <circle cx="210" cy="184" r="94" fill="url(#paint1_radial)"/>
  <path d="M144 333C144 286.056 182.056 248 229 248H241C287.944 248 326 286.056 326 333V349H144V333Z" fill="#0F1E34"/>
  <path d="M212 253C176.101 253 147 223.899 147 188C147 152.101 176.101 123 212 123C247.899 123 277 152.101 277 188C277 223.899 247.899 253 212 253Z" fill="#E6EEF9"/>
  <path d="M174 191C174 161.176 198.176 137 228 137C257.824 137 282 161.176 282 191V201C282 230.824 257.824 255 228 255C198.176 255 174 230.824 174 201V191Z" fill="#F7C8A5"/>
  <path d="M173 191C173 154.549 202.549 125 239 125C264.055 125 285.848 139.051 297 160.139V193C297 217.301 277.301 237 253 237H223C195.386 237 173 214.614 173 187V191Z" fill="#111F33"/>
  <path d="M192 137C204.5 128.5 219.912 124 236.5 124C264.114 124 286.5 136.386 286.5 164V173.5C264 171 240.5 160.5 221 146C213.5 155.5 199.5 164.5 182.5 171V160C182.5 150.248 186.188 142.04 192 137Z" fill="#0C1728"/>
  <circle cx="190" cy="196" r="6" fill="#111827"/>
  <circle cx="244" cy="196" r="6" fill="#111827"/>
  <path d="M206 223C214.333 228.333 225.667 228.333 234 223" stroke="#9C5D3E" stroke-width="4" stroke-linecap="round"/>
  <path d="M139 94C153.052 72.1027 181.171 58 213 58C253.258 58 289.173 80.4083 307 115" stroke="#79C0FF" stroke-width="2" stroke-opacity="0.4"/>
  <rect x="48" y="48" width="124" height="40" rx="20" fill="rgba(255,255,255,0.08)"/>
  <text x="70" y="73" fill="#79C0FF" font-family="JetBrains Mono, monospace" font-size="16">AK.dev</text>
  <defs>
    <linearGradient id="paint0_linear" x1="44" y1="46" x2="375" y2="378" gradientUnits="userSpaceOnUse">
      <stop stop-color="#13233B"/>
      <stop offset="0.5" stop-color="#0C172B"/>
      <stop offset="1" stop-color="#111E34"/>
    </linearGradient>
    <radialGradient id="paint1_radial" cx="0" cy="0" r="1" gradientUnits="userSpaceOnUse" gradientTransform="translate(210 160) rotate(90) scale(148)">
      <stop stop-color="#79C0FF" stop-opacity="0.35"/>
      <stop offset="1" stop-color="#79C0FF" stop-opacity="0"/>
    </radialGradient>
  </defs>
</svg>
